<svg id="Icons" height="512" viewBox="0 0 60 60" width="512" xmlns="http://www.w3.org/2000/svg"><path d="m58 20a3 3 0 0 0 -3-3h-35a3 3 0 0 0 -3 3v27a3 3 0 0 0 3 3h3a1 1 0 0 1 1 1v5.85a1.122 1.122 0 0 0 .653 1.041 1.084 1.084 0 0 0 1.179-.153l9.1-7.51a1 1 0 0 1 .638-.228h19.43a3 3 0 0 0 3-3zm-14 22h-23a1 1 0 0 1 0-2h23a1 1 0 0 1 0 2zm10-7h-33a1 1 0 0 1 0-2h33a1 1 0 0 1 0 2zm0-8h-33a1 1 0 0 1 0-2h33a1 1 0 0 1 0 2z"/><path d="m10 5h33a3 3 0 0 0 -3-3h-35a3 3 0 0 0 -3 3v27a3 3 0 0 0 3 3v-25a5.006 5.006 0 0 1 5-5z"/><path d="m15 10h33a3 3 0 0 0 -3-3h-35a3 3 0 0 0 -3 3v27a3 3 0 0 0 3 3v-25a5.006 5.006 0 0 1 5-5z"/><path d="m20 15h33a3 3 0 0 0 -3-3h-35a3 3 0 0 0 -3 3v27a3 3 0 0 0 3 3v-25a5.006 5.006 0 0 1 5-5z"/></svg>